<svg xmlns="http://www.w3.org/2000/svg" data-name="Layer 2" viewBox="0 0 100 100" x="0px" y="0px"><title>Artboard 62</title><g><path d="M84,42.34V38.5a34,34,0,1,0-68,0v3.84a10,10,0,0,0,0,18.32V84.58a10,10,0,0,0,10,10H74a10,10,0,0,0,10-10V60.66a10,10,0,0,0,0-18.32ZM61,40.16a9,9,0,0,0-8.79,7.1,5.1,5.1,0,0,0-4.41,0,9,9,0,0,0-16.64-2.5H24V38.5a25.86,25.86,0,0,1,.83-6.44,37.48,37.48,0,0,1,49.75,12.7H68.84A9,9,0,0,0,61,40.16Zm0,2a7,7,0,1,1-7,7A7,7,0,0,1,61,42.16Zm-22,0a7,7,0,1,1-7,7A7,7,0,0,1,39,42.16ZM20,57.5a6,6,0,0,1,0-12v12Zm30,33a26,26,0,0,1-26-26V46.76h6.33A9,9,0,1,0,48,49.49a3.32,3.32,0,0,1,4,0,9,9,0,1,0,17.65-2.73h6.1l.24.43V64.5A26,26,0,0,1,50,90.5ZM84,56a6,6,0,0,1-4,1.54v-12A6,6,0,0,1,84,56Z"></path><path d="M58,52.46a1,1,0,0,0,1-1,2,2,0,0,1,4,0,1,1,0,0,0,2,0,4,4,0,0,0-8,0A1,1,0,0,0,58,52.46Z"></path><path d="M36,52.46a1,1,0,0,0,1-1,2,2,0,0,1,4,0,1,1,0,0,0,2,0,4,4,0,0,0-8,0A1,1,0,0,0,36,52.46Z"></path><path d="M50,64a5.21,5.21,0,0,0,3.71-1.54A1,1,0,0,0,52.29,61a3.32,3.32,0,0,1-4.59,0,1,1,0,0,0-1.41,1.41A5.21,5.21,0,0,0,50,64Z"></path><path d="M60,69.05H40a1,1,0,0,0-1,1,11,11,0,0,0,22,0A1,1,0,0,0,60,69.05Zm-2.59,6.09c-1.18-1.83-4-3.09-7.41-3.09s-6.23,1.26-7.41,3.09a8.94,8.94,0,0,1-1.54-4.09H58.94A8.94,8.94,0,0,1,57.41,75.14Z"></path></g></svg>